P2
58 58
255
50 50 50 50 193 50 50 50 50 232 137 200 246 231 50 50 50 243 218 50 50 50 50 50 50 250 50 50 255 235 50 50 50 198 182 248 221 196 133 247 50 50 191 50 245 233 227 28 221 190 50 50 50 50 50 50 50 222 
215 50 201 50 50 50 50 50 249 255 199 50 246 50 50 182 50 50 50 250 50 50 184 50 50 222 50 50 50 50 240 50 50 185 50 218 186 50 221 179 50 50 50 50 50 189 56 48 62 216 50 219 50 227 50 245 193 50 
50 247 220 248 50 50 178 50 50 50 251 50 50 50 199 50 50 224 50 50 50 50 50 50 50 50 50 50 50 222 50 50 213 50 50 218 230 50 50 50 50 50 50 50 202 50 241 212 244 254 50 50 50 50 50 50 50 50 
50 50 50 50 50 50 196 211 234 50 233 50 213 50 50 50 50 50 50 255 50 50 253 50 50 50 50 50 182 249 201 50 251 50 50 50 50 50 50 253 50 50 50 233 50 50 50 50 230 50 50 251 50 50 50 50 227 50 
50 50 50 209 247 50 212 156 222 232 5 27 229 50 50 50 50 212 187 50 50 50 50 50 50 188 50 194 50 50 50 50 50 187 50 50 50 50 193 50 236 199 50 210 224 50 231 226 50 50 239 181 50 50 200 226 251 50 
50 50 50 231 50 50 50 225 50 210 229 32 225 210 231 50 50 199 50 50 50 183 50 50 50 50 215 50 50 210 50 250 50 185 225 213 243 50 182 50 50 50 50 50 50 50 50 50 50 185 50 200 50 204 50 221 50 50 
50 50 50 191 50 50 50 50 50 50 243 187 189 50 50 50 50 197 50 194 215 50 50 50 50 236 65 208 201 50 50 219 50 50 50 50 50 50 50 50 50 50 50 50 50 50 50 210 50 243 50 248 50 50 50 50 252 50 
218 197 50 227 50 50 247 50 233 50 50 253 131 205 50 50 50 50 227 50 50 50 50 189 252 50 205 50 50 201 50 233 50 50 204 50 50 196 50 50 255 183 50 50 50 50 50 50 207 237 50 248 241 50 181 237 50 50 
50 50 50 50 50 219 183 50 50 50 252 50 184 251 50 50 50 50 50 50 50 50 50 50 50 50 178 50 50 50 50 50 50 239 50 50 202 210 50 211 50 50 50 206 50 50 249 192 50 50 50 50 50 188 50 50 50 50 
50 50 50 50 50 50 50 50 50 243 50 50 198 50 197 50 239 50 50 232 201 50 50 50 244 50 205 50 50 239 224 50 50 50 220 50 50 50 190 50 248 202 50 190 235 231 203 219 239 50 195 184 224 50 201 212 218 50 
50 229 50 50 50 235 50 50 50 50 50 50 50 50 247 210 50 226 185 233 189 50 50 50 50 50 201 50 229 50 194 50 50 50 50 50 50 50 50 50 50 218 207 233 58 198 187 50 50 50 50 50 50 50 231 50 50 50 
50 50 50 50 180 220 181 50 236 232 50 50 50 50 50 50 50 50 50 50 204 202 193 50 50 223 50 50 50 50 200 50 50 50 50 50 249 50 50 229 50 217 67 158 129 124 249 50 240 50 50 188 228 50 203 50 255 50 
50 50 50 245 104 195 17 222 231 50 50 50 239 50 50 50 187 50 50 180 188 50 206 50 50 178 50 50 198 50 50 243 50 200 232 50 50 249 222 50 50 231 194 243 4 235 50 191 50 214 50 50 50 50 50 209 243 50 
249 185 224 110 172 121 54 148 121 194 50 50 50 50 50 247 50 50 226 50 50 50 50 50 201 247 182 50 201 50 220 194 50 188 50 50 50 50 50 50 50 50 7 93 196 50 50 50 50 50 245 50 50 50 50 50 50 184 
173 56 98 137 250 197 70 42 212 50 50 50 50 185 50 50 50 50 50 50 184 50 50 50 50 50 50 50 199 50 50 50 204 50 254 198 50 50 240 50 191 50 189 234 50 50 50 50 214 50 185 50 50 50 50 50 50 50 
180 112 244 253 228 192 168 226 50 50 50 50 50 230 247 50 208 50 50 235 50 50 50 50 229 50 50 50 50 50 50 237 50 50 234 50 50 50 50 189 50 50 50 50 50 50 50 50 50 50 50 219 251 186 50 225 207 50 
2 7 228 131 244 145 249 223 50 50 50 50 237 50 50 50 50 50 50 50 255 50 236 50 50 232 245 50 201 196 50 203 204 50 50 192 179 50 50 213 50 50 50 50 50 50 50 50 50 208 50 50 50 50 50 247 50 50 
141 59 62 202 6 10 236 84 202 50 50 50 50 50 50 223 50 50 50 255 255 194 207 50 50 50 50 50 50 50 50 202 212 50 50 218 50 50 50 50 50 203 50 50 223 50 50 50 50 237 50 50 50 50 50 187 50 50 
75 171 8 84 117 220 155 10 182 236 50 228 50 50 50 50 50 50 50 183 232 50 50 50 228 50 50 50 50 213 50 50 50 50 50 245 50 50 50 50 50 50 50 50 50 201 202 50 50 50 50 50 50 215 50 50 50 232 
163 59 189 62 150 61 226 69 50 50 50 50 50 197 190 50 50 247 50 205 50 211 50 50 50 184 50 50 50 50 50 209 227 50 50 50 50 242 191 50 50 50 219 234 50 50 50 50 50 50 229 50 233 50 50 252 195 50 
144 241 206 12 195 177 69 211 43 187 197 235 50 50 50 50 50 50 216 50 50 50 180 50 50 50 50 50 50 50 50 50 50 50 50 205 188 50 50 232 50 50 211 50 50 50 219 50 50 179 31 193 50 212 50 50 50 50 
161 11 123 222 54 134 233 109 83 166 233 244 50 50 50 50 189 215 50 50 50 201 50 50 50 50 50 50 243 189 250 50 201 50 50 255 251 50 50 50 50 50 50 50 50 50 242 50 50 50 205 204 50 50 50 180 50 50 
76 117 78 70 10 23 187 126 22 183 219 50 50 222 215 50 50 50 229 50 50 50 193 50 50 234 50 50 50 235 251 235 50 50 50 50 50 236 233 50 50 196 248 50 50 207 242 50 50 216 50 50 50 50 241 50 50 50 
194 188 69 189 167 165 6 216 16 102 197 249 220 50 189 212 50 50 50 50 50 193 220 226 50 50 50 50 50 50 50 50 239 242 228 50 50 234 50 50 50 50 50 50 50 50 50 50 191 164 179 50 50 50 50 200 50 50 
27 3 90 201 43 74 187 15 225 83 250 50 252 50 50 50 50 50 253 50 209 188 50 50 236 50 50 254 50 178 50 50 182 128 45 225 202 233 240 50 50 234 251 50 50 50 214 50 50 212 50 50 50 50 248 124 192 50 
122 9 191 160 109 117 32 155 86 234 50 50 50 192 50 50 249 50 50 207 50 179 50 50 50 50 50 50 50 50 50 50 50 234 203 171 95 235 50 181 213 202 252 50 50 50 250 50 50 50 50 50 191 246 218 230 50 50 
5 219 131 48 6 193 27 209 108 122 188 178 50 50 50 50 251 50 50 245 50 236 50 221 50 192 211 50 50 254 186 50 217 50 219 223 255 246 50 50 50 50 50 50 253 50 205 248 50 50 237 50 50 238 50 50 50 218 
14 84 216 201 255 177 7 219 144 6 209 50 50 50 50 50 227 50 50 50 50 198 214 50 240 232 50 246 50 50 208 50 50 50 50 50 50 50 50 233 50 50 50 225 50 213 50 50 50 50 50 50 50 217 50 50 193 50 
67 77 86 19 231 214 188 74 86 21 180 50 255 50 220 50 50 50 254 50 50 50 50 50 50 50 50 50 179 50 50 246 50 203 50 50 50 197 184 248 219 50 50 218 50 50 50 50 208 50 50 50 50 50 50 50 50 50 
99 44 191 216 34 70 163 44 180 69 241 50 50 204 216 230 50 50 50 50 253 50 50 50 50 50 50 180 50 50 50 50 191 248 50 225 50 50 50 242 99 255 50 50 203 50 50 50 50 242 50 50 50 196 50 213 235 186 
137 42 77 195 205 12 187 71 237 250 50 251 236 201 250 50 50 197 50 241 50 50 227 50 187 50 50 50 229 50 50 50 50 50 50 249 50 237 50 50 231 50 50 211 50 50 50 217 50 50 202 50 192 50 50 50 189 185 
216 162 187 240 50 232 84 66 225 197 50 50 50 50 201 50 234 50 207 50 50 231 50 220 50 50 50 218 228 50 50 188 234 50 50 251 50 50 50 50 198 50 50 233 50 50 50 50 50 50 50 50 50 50 50 50 50 181 
45 107 252 192 50 230 15 212 225 70 213 50 50 50 50 50 50 50 50 233 50 218 50 243 50 50 50 50 50 50 50 184 50 50 50 50 236 50 255 205 207 212 236 50 50 50 200 243 50 50 220 50 50 249 248 50 50 50 
189 189 162 198 50 50 204 238 208 184 119 207 50 50 50 50 50 50 234 50 50 50 50 225 50 226 218 50 50 50 50 50 201 50 208 50 192 50 50 50 50 50 50 217 234 50 50 50 50 50 50 50 50 50 253 50 50 216 
50 50 228 50 50 50 50 50 235 228 224 50 50 50 188 213 50 50 217 50 50 240 50 50 50 50 218 50 50 249 225 231 99 197 239 215 50 50 50 50 247 251 50 50 50 50 50 50 217 50 50 222 50 50 50 50 50 50 
50 180 50 50 50 179 199 50 50 50 50 50 50 50 50 50 50 209 50 50 50 50 50 50 249 50 201 50 50 50 204 159 218 50 50 50 208 50 255 50 50 50 50 50 50 50 50 50 50 50 50 50 50 209 50 50 50 241 
50 184 50 225 50 241 253 249 50 205 50 50 50 50 50 50 50 50 205 50 50 50 50 218 198 186 171 238 50 228 223 110 156 247 50 244 232 50 237 50 50 50 181 50 50 184 50 50 236 50 50 50 50 50 50 50 236 217 
50 50 189 16 180 50 50 50 50 239 50 50 50 50 50 243 50 222 50 50 50 50 50 50 235 207 193 50 50 50 241 66 244 50 50 50 50 50 50 50 50 250 50 50 50 50 50 50 250 50 50 50 190 50 251 50 50 189 
193 50 50 179 50 50 50 239 50 50 50 178 194 50 50 50 50 50 50 50 50 50 184 50 214 118 196 209 50 50 50 225 50 249 50 50 50 246 246 50 50 50 50 50 208 190 50 232 206 231 50 239 50 50 50 50 50 252 
248 201 50 50 50 50 50 50 50 217 50 50 50 50 50 50 184 50 50 50 50 214 50 226 197 103 21 253 50 191 249 50 50 50 50 50 50 50 50 241 50 50 50 50 50 50 233 241 50 241 50 250 200 50 221 50 50 242 
50 50 50 50 50 50 50 191 50 255 50 219 240 180 50 50 50 184 50 50 50 248 50 201 242 246 255 207 50 50 194 50 199 50 50 50 50 50 50 50 50 50 244 50 50 50 50 50 50 195 201 213 187 248 50 50 238 158 
50 50 50 50 50 50 179 50 50 50 50 179 50 50 50 50 50 50 224 180 254 50 50 199 225 50 191 50 225 50 50 50 50 50 50 50 50 50 183 216 50 231 50 50 50 196 50 50 50 50 50 50 50 180 251 50 231 186 
228 200 50 50 50 50 50 196 50 185 50 226 50 198 201 50 240 252 225 50 50 50 252 193 50 50 50 50 225 50 255 197 50 50 200 50 241 50 50 50 223 36 254 50 235 199 50 219 195 50 50 50 50 50 50 207 219 50 
50 188 218 50 50 254 50 50 50 50 50 50 50 50 50 50 191 50 50 50 50 50 187 50 50 50 50 50 50 219 224 50 50 186 50 50 184 178 50 50 50 212 50 50 50 212 50 226 50 50 50 50 50 235 50 231 50 50 
50 50 251 50 50 50 228 50 50 50 50 50 50 50 228 246 50 50 203 50 234 50 184 50 50 50 50 50 50 50 197 50 50 192 50 201 50 50 50 50 50 50 50 192 50 245 182 28 252 50 50 230 50 50 50 50 50 50 
50 50 50 50 251 50 50 50 50 50 50 200 50 50 50 50 50 50 50 185 50 50 50 242 50 194 50 50 206 50 50 50 224 50 244 219 50 50 50 179 180 50 50 50 217 234 215 220 50 50 50 50 242 207 243 50 50 247 
214 50 50 50 223 50 247 212 50 50 254 132 245 178 50 50 240 245 50 199 209 195 50 50 196 50 50 183 132 199 50 50 50 50 50 50 50 50 219 50 224 218 199 213 50 227 50 50 216 50 50 50 50 50 50 50 50 50 
224 50 50 50 50 50 50 50 50 198 180 23 9 148 241 209 50 50 180 176 250 50 50 50 50 183 50 50 224 50 50 193 50 50 50 200 200 226 222 50 50 50 50 178 50 50 50 50 50 50 50 50 195 50 193 248 50 50 
50 50 179 196 237 50 50 50 211 50 50 178 37 200 50 50 50 50 50 253 254 214 50 50 50 247 212 50 239 50 50 50 50 50 240 50 50 50 50 50 50 50 209 50 50 50 208 219 50 50 217 50 243 50 192 50 50 50 
50 244 181 244 50 50 50 50 50 50 50 181 158 195 50 50 50 50 50 50 50 50 50 50 50 50 50 50 50 50 222 232 50 50 220 50 50 50 50 211 50 243 50 50 183 214 50 50 50 50 50 50 50 50 50 179 50 228 
252 50 50 218 50 197 50 232 50 50 248 234 215 50 221 50 181 50 50 50 50 187 50 205 203 50 50 50 50 224 50 50 50 50 50 50 50 50 248 50 50 240 50 50 50 50 212 50 238 50 50 50 197 246 50 50 50 50 
208 236 50 243 50 50 50 50 50 180 50 50 50 50 50 195 50 238 50 232 50 50 242 50 50 183 50 244 50 50 50 50 50 50 50 50 50 50 188 50 50 190 50 50 50 50 50 50 250 50 50 50 50 50 179 255 50 50 
244 50 50 50 50 50 50 50 218 7 237 50 50 50 50 50 50 178 184 213 50 179 50 50 201 50 200 50 50 203 194 50 50 50 50 50 186 50 235 50 50 216 50 50 248 50 50 50 50 50 50 50 197 50 210 50 50 50 
50 190 50 205 50 50 50 50 248 186 222 227 50 50 187 50 50 179 249 50 50 50 50 50 50 50 50 50 224 50 236 235 50 50 184 50 207 185 187 199 50 50 50 194 50 50 50 50 50 50 50 50 50 50 50 225 50 50 
50 50 50 50 50 210 50 50 50 50 195 249 50 50 50 179 249 50 50 50 207 50 50 50 50 205 50 50 50 50 220 225 50 50 50 237 50 50 248 50 180 187 50 189 242 50 50 236 198 50 50 50 189 50 50 50 50 186 
229 50 239 193 234 50 50 234 50 50 50 50 50 50 50 209 206 50 246 50 50 188 200 50 50 50 186 50 211 50 50 184 50 50 50 50 50 196 242 50 50 50 50 50 50 50 50 50 196 50 50 206 50 50 250 50 187 180 
220 50 201 245 70 231 253 191 239 50 50 225 50 237 50 50 50 50 186 50 192 50 50 50 50 50 50 50 50 50 250 50 50 195 248 241 50 245 50 50 50 50 50 50 50 50 50 182 61 237 196 253 50 50 50 184 235 50 
255 50 50 249 21 86 189 50 50 50 50 248 50 50 50 50 50 50 50 216 50 50 198 201 50 50 50 50 234 247 26 233 50 197 227 50 50 50 50 50 50 50 50 50 182 50 50 50 214 172 52 219 50 250 50 50 50 50 
