<svg xmlns="http://www.w3.org/2000/svg" xmlns:xlink="http://www.w3.org/1999/xlink" xmlns:lucid="lucid" width="740" height="314.15"><g transform="translate(-60 -146.8499009622196)" lucid:page-tab-id="0_0"><path d="M0 0h1870.87v1322.83H0z" fill="#fff"/><path d="M500 290c0 38.66-31.34 70-70 70s-70-31.34-70-70 31.34-70 70-70 70 31.34 70 70z" stroke="#5e5e5e" stroke-width="3" fill="#fff"/><use xlink:href="#a" transform="matrix(1,0,0,1,365,225.00000000000006) translate(29.845679012345684 70.59027777777777)"/><path d="M455.46 222.18v-33a6 6 0 0 0-6-6h-38.92a6 6 0 0 0-6 6v15.5" stroke="#5e5e5e" stroke-width="2" fill="none"/><path d="M456.46 223.6L455 223l-.54-.2v-.64h2z" stroke="#5e5e5e" stroke-width=".05" fill="#5e5e5e"/><path d="M404.54 219.95l-4.63-14.27h9.28z" stroke="#5e5e5e" stroke-width="2" fill="#5e5e5e"/><use xlink:href="#b" transform="matrix(1,0,0,1,417.6560662047306,157.8499009622196) translate(0 14.222222222222223)"/><path d="M780 290c0 38.66-31.34 70-70 70s-70-31.34-70-70 31.34-70 70-70 70 31.34 70 70z" stroke="#5e5e5e" stroke-width="3" fill="#fff"/><use xlink:href="#c" transform="matrix(1,0,0,1,645,225.00000000000006) translate(21.203703703703695 70.59027777777777)"/><path d="M735.46 222.18v-33a6 6 0 0 0-6-6h-38.92a6 6 0 0 0-6 6v15.5" stroke="#5e5e5e" stroke-width="2" fill="none"/><path d="M736.46 223.6L735 223l-.54-.2v-.64h2z" stroke="#5e5e5e" stroke-width=".05" fill="#5e5e5e"/><path d="M684.54 219.95l-4.63-14.27h9.28z" stroke="#5e5e5e" stroke-width="2" fill="#5e5e5e"/><use xlink:href="#d" transform="matrix(1,0,0,1,697.6560662047305,157.84990096221964) translate(0 14.222222222222223)"/><path d="M220 290c0 38.66-31.34 70-70 70s-70-31.34-70-70 31.34-70 70-70 70 31.34 70 70z" stroke="#5e5e5e" stroke-width="3" fill="#fff"/><use xlink:href="#e" transform="matrix(1,0,0,1,85,225.00000000000006) translate(8.888888888888879 70.59027777777777)"/><path d="M175.46 222.18v-33a6 6 0 0 0-6-6h-38.92a6 6 0 0 0-6 6v15.5" stroke="#5e5e5e" stroke-width="2" fill="none"/><path d="M176.46 223.6L175 223l-.54-.2v-.64h2z" stroke="#5e5e5e" stroke-width=".05" fill="#5e5e5e"/><path d="M124.54 219.95l-4.63-14.27h9.28z" stroke="#5e5e5e" stroke-width="2" fill="#5e5e5e"/><use xlink:href="#d" transform="matrix(1,0,0,1,137.6560662047306,157.8499009622196) translate(0 14.222222222222223)"/><path d="M496.1 260.36h130.3" stroke="#5e5e5e" stroke-width="2" fill="none"/><path d="M496.1 261.36h-.6l-.4-1-.5-1h1.5z" stroke="#5e5e5e" stroke-width=".05" fill="#5e5e5e"/><path d="M641.68 260.36L627.4 265v-9.28z" stroke="#5e5e5e" stroke-width="2" fill="#5e5e5e"/><use xlink:href="#f" transform="matrix(1,0,0,1,557.6552260337218,235.02666628882534) translate(0 14.222222222222223)"/><path d="M638.2 299.93H519.3" stroke="#5e5e5e" stroke-width="2" fill="none"/><path d="M639.22 300.22l.13.7h-1.18v-2h.92z" stroke="#5e5e5e" stroke-width=".05" fill="#5e5e5e"/><path d="M504.04 299.93l14.27-4.64v9.26z" stroke="#5e5e5e" stroke-width="2" fill="#5e5e5e"/><use xlink:href="#f" transform="matrix(1,0,0,1,557.6535746296619,274.5926473323666) translate(0 14.222222222222223)"/><path d="M215.63 259.44h131.24" stroke="#5e5e5e" stroke-width="2" fill="none"/><path d="M215.65 260.44h-.53l-.03-.08-.97-1.92h1.52z" stroke="#5e5e5e" stroke-width=".05" fill="#5e5e5e"/><path d="M362.14 259.44l-14.27 4.63v-9.27z" stroke="#5e5e5e" stroke-width="2" fill="#5e5e5e"/><use xlink:href="#f" transform="matrix(1,0,0,1,277.6537511197818,234.10394244963206) translate(0 14.222222222222223)"/><path d="M358.15 299.54H239.35" stroke="#5e5e5e" stroke-width="2" fill="none"/><path d="M359.22 300.22l.06.32h-1.15v-2h.9z" stroke="#5e5e5e" stroke-width=".05" fill="#5e5e5e"/><path d="M224.08 299.54l14.27-4.64v9.27z" stroke="#5e5e5e" stroke-width="2" fill="#5e5e5e"/><use xlink:href="#f" transform="matrix(1,0,0,1,277.6537053650217,274.20392910803093) translate(0 14.222222222222223)"/><path d="M720.5 361.72V444a6 6 0 0 1-6 6h-569a6 6 0 0 1-6-6v-64.77" stroke="#5e5e5e" stroke-width="2" fill="none"/><path d="M721.5 361.75h-2v-.9l.72-.07 1.28-.24z" stroke="#5e5e5e" stroke-width=".05" fill="#5e5e5e"/><path d="M139.5 363.96l4.62 14.27h-9.27z" stroke="#5e5e5e" stroke-width="2" fill="#5e5e5e"/><use xlink:href="#g" transform="matrix(1,0,0,1,417.650045942613,424.66666666666663) translate(0 14.222222222222223)"/><path d="M162.26 361.4v33a6 6 0 0 0 6 6h523.48a6 6 0 0 0 6-6v-15.5" stroke="#5e5e5e" stroke-width="2" fill="none"/><path d="M163.26 361.43h-2v-.84l2-.37z" stroke="#5e5e5e" stroke-width=".05" fill="#5e5e5e"/><path d="M697.74 363.65l4.63 14.26h-9.27z" stroke="#5e5e5e" stroke-width="2" fill="#5e5e5e"/><use xlink:href="#g" transform="matrix(1,0,0,1,417.6533853138832,375.07569952104427) translate(0 14.222222222222223)"/><defs><path fill="#333" d="M205 0l-28-72H64L36 0H1l101-248h38L239 0h-34zm-38-99l-47-123c-12 45-31 82-46 123h93" id="h"/><path fill="#333" d="M210-169c-67 3-38 105-44 169h-31v-121c0-29-5-50-35-48C34-165 62-65 56 0H25l-1-190h30c1 10-1 24 2 32 10-44 99-50 107 0 11-21 27-35 58-36 85-2 47 119 55 194h-31v-121c0-29-5-49-35-48" id="i"/><path fill="#333" d="M100-194c63 0 86 42 84 106H49c0 40 14 67 53 68 26 1 43-12 49-29l28 8c-11 28-37 45-77 45C44 4 14-33 15-96c1-61 26-98 85-98zm52 81c6-60-76-77-97-28-3 7-6 17-6 28h103" id="j"/><path fill="#333" d="M117-194c89-4 53 116 60 194h-32v-121c0-31-8-49-39-48C34-167 62-67 57 0H25l-1-190h30c1 10-1 24 2 32 11-22 29-35 61-36" id="k"/><path fill="#333" d="M100-194c62-1 85 37 85 99 1 63-27 99-86 99S16-35 15-95c0-66 28-99 85-99zM99-20c44 1 53-31 53-75 0-43-8-75-51-75s-53 32-53 75 10 74 51 75" id="l"/><g id="a"><use transform="matrix(0.06172839506172839,0,0,0.06172839506172839,0,0)" xlink:href="#h"/><use transform="matrix(0.06172839506172839,0,0,0.06172839506172839,14.814814814814813,0)" xlink:href="#i"/><use transform="matrix(0.06172839506172839,0,0,0.06172839506172839,33.2716049382716,0)" xlink:href="#j"/><use transform="matrix(0.06172839506172839,0,0,0.06172839506172839,45.61728395061728,0)" xlink:href="#k"/><use transform="matrix(0.06172839506172839,0,0,0.06172839506172839,57.962962962962955,0)" xlink:href="#l"/></g><path fill="#333" d="M101-251c68 0 84 54 84 127C185-50 166 4 99 4S15-52 14-124c-1-75 17-127 87-127zm-1 216c37-5 36-46 36-89s4-89-36-89c-39 0-36 45-36 89 0 43-3 85 36 89" id="m"/><path fill="#333" d="M24 0v-54h51V0H24" id="n"/><path fill="#333" d="M165-50V0h-47v-50H5v-38l105-160h55v161h33v37h-33zm-47-37l2-116L46-87h72" id="o"/><g id="b"><use transform="matrix(0.04938271604938272,0,0,0.04938271604938272,0,0)" xlink:href="#m"/><use transform="matrix(0.04938271604938272,0,0,0.04938271604938272,9.876543209876544,0)" xlink:href="#n"/><use transform="matrix(0.04938271604938272,0,0,0.04938271604938272,14.814814814814817,0)" xlink:href="#o"/></g><path fill="#333" d="M212-179c-10-28-35-45-73-45-59 0-87 40-87 99 0 60 29 101 89 101 43 0 62-24 78-52l27 14C228-24 195 4 139 4 59 4 22-46 18-125c-6-104 99-153 187-111 19 9 31 26 39 46" id="p"/><path fill="#333" d="M106-169C34-169 62-67 57 0H25v-261h32l-1 103c12-21 28-36 61-36 89 0 53 116 60 194h-32v-121c2-32-8-49-39-48" id="q"/><path fill="#333" d="M84 4C-5 8 30-112 23-190h32v120c0 31 7 50 39 49 72-2 45-101 50-169h31l1 190h-30c-1-10 1-25-2-33-11 22-28 36-60 37" id="r"/><path fill="#333" d="M108 0H70L1-190h34L89-25l56-165h34" id="s"/><path fill="#333" d="M135-143c-3-34-86-38-87 0 15 53 115 12 119 90S17 21 10-45l28-5c4 36 97 45 98 0-10-56-113-15-118-90-4-57 82-63 122-42 12 7 21 19 24 35" id="t"/><g id="c"><use transform="matrix(0.06172839506172839,0,0,0.06172839506172839,0,0)" xlink:href="#p"/><use transform="matrix(0.06172839506172839,0,0,0.06172839506172839,15.987654320987653,0)" xlink:href="#q"/><use transform="matrix(0.06172839506172839,0,0,0.06172839506172839,28.333333333333332,0)" xlink:href="#r"/><use transform="matrix(0.06172839506172839,0,0,0.06172839506172839,40.67901234567901,0)" xlink:href="#s"/><use transform="matrix(0.06172839506172839,0,0,0.06172839506172839,51.79012345679013,0)" xlink:href="#l"/><use transform="matrix(0.06172839506172839,0,0,0.06172839506172839,64.13580246913581,0)" xlink:href="#t"/><use transform="matrix(0.06172839506172839,0,0,0.06172839506172839,75.24691358024693,0)" xlink:href="#l"/></g><path fill="#333" d="M115-159c48 0 72 30 72 78 0 54-30 85-83 85-64 0-91-50-91-122 0-98 58-163 141-120 15 8 21 24 27 44l-47 6c-5-31-48-31-61-4-7 14-11 33-11 60 9-17 28-27 53-27zM102-35c24 0 36-20 36-45s-11-43-37-43c-23 0-36 14-36 38 0 27 11 50 37 50" id="u"/><g id="d"><use transform="matrix(0.04938271604938272,0,0,0.04938271604938272,0,0)" xlink:href="#m"/><use transform="matrix(0.04938271604938272,0,0,0.04938271604938272,9.876543209876544,0)" xlink:href="#n"/><use transform="matrix(0.04938271604938272,0,0,0.04938271604938272,14.814814814814817,0)" xlink:href="#u"/></g><path fill="#333" d="M30 0v-248h187v28H63v79h144v27H63v87h162V0H30" id="v"/><path fill="#333" d="M24 0v-261h32V0H24" id="w"/><path fill="#333" d="M141-36C126-15 110 5 73 4 37 3 15-17 15-53c-1-64 63-63 125-63 3-35-9-54-41-54-24 1-41 7-42 31l-33-3c5-37 33-52 76-52 45 0 72 20 72 64v82c-1 20 7 32 28 27v20c-31 9-61-2-59-35zM48-53c0 20 12 33 32 33 41-3 63-29 60-74-43 2-92-5-92 41" id="x"/><path fill="#333" d="M114-163C36-179 61-72 57 0H25l-1-190h30c1 12-1 29 2 39 6-27 23-49 58-41v29" id="y"/><path fill="#333" d="M85-194c31 0 48 13 60 33l-1-100h32l1 261h-30c-2-10 0-23-3-31C134-8 116 4 85 4 32 4 16-35 15-94c0-66 23-100 70-100zm9 24c-40 0-46 34-46 75 0 40 6 74 45 74 42 0 51-32 51-76 0-42-9-74-50-73" id="z"/><g id="e"><use transform="matrix(0.06172839506172839,0,0,0.06172839506172839,0,0)" xlink:href="#v"/><use transform="matrix(0.06172839506172839,0,0,0.06172839506172839,14.814814814814813,0)" xlink:href="#k"/><use transform="matrix(0.06172839506172839,0,0,0.06172839506172839,27.160493827160494,0)" xlink:href="#t"/><use transform="matrix(0.06172839506172839,0,0,0.06172839506172839,38.27160493827161,0)" xlink:href="#l"/><use transform="matrix(0.06172839506172839,0,0,0.06172839506172839,50.617283950617285,0)" xlink:href="#w"/><use transform="matrix(0.06172839506172839,0,0,0.06172839506172839,55.49382716049383,0)" xlink:href="#x"/><use transform="matrix(0.06172839506172839,0,0,0.06172839506172839,67.8395061728395,0)" xlink:href="#y"/><use transform="matrix(0.06172839506172839,0,0,0.06172839506172839,75.18518518518519,0)" xlink:href="#x"/><use transform="matrix(0.06172839506172839,0,0,0.06172839506172839,87.53086419753087,0)" xlink:href="#z"/><use transform="matrix(0.06172839506172839,0,0,0.06172839506172839,99.87654320987656,0)" xlink:href="#l"/></g><path fill="#333" d="M128-127c34 4 56 21 59 58 7 91-148 94-172 28-4-9-6-17-7-26l51-5c1 24 16 35 40 36 23 0 39-12 38-36-1-31-31-36-65-34v-40c32 2 59-3 59-33 0-20-13-33-34-33s-33 13-35 32l-50-3c6-44 37-68 86-68 50 0 83 20 83 66 0 35-22 52-53 58" id="A"/><g id="f"><use transform="matrix(0.04938271604938272,0,0,0.04938271604938272,0,0)" xlink:href="#m"/><use transform="matrix(0.04938271604938272,0,0,0.04938271604938272,9.876543209876544,0)" xlink:href="#n"/><use transform="matrix(0.04938271604938272,0,0,0.04938271604938272,14.814814814814817,0)" xlink:href="#A"/></g><path fill="#333" d="M23 0v-37h61v-169l-59 37v-38l62-41h46v211h57V0H23" id="B"/><g id="g"><use transform="matrix(0.04938271604938272,0,0,0.04938271604938272,0,0)" xlink:href="#m"/><use transform="matrix(0.04938271604938272,0,0,0.04938271604938272,9.876543209876544,0)" xlink:href="#n"/><use transform="matrix(0.04938271604938272,0,0,0.04938271604938272,14.814814814814817,0)" xlink:href="#B"/></g></defs></g></svg>