P2
17 17
255
46 46 46 46 46 46 46 46 250 46 46 46 46 236 46 46 46 
253 46 243 46 239 46 46 46 46 46 46 235 46 46 46 46 46 
46 46 46 46 46 46 46 46 234 235 46 46 46 46 46 46 46 
46 246 232 46 46 46 46 46 46 46 46 46 46 46 46 46 46 
239 46 46 46 46 46 46 232 46 46 46 46 46 46 46 46 46 
46 46 46 46 46 46 46 46 234 46 46 46 234 46 46 46 46 
46 46 46 46 236 46 46 46 46 246 46 46 46 46 46 46 46 
46 46 46 46 46 248 46 46 46 46 239 46 46 46 46 46 46 
46 46 46 46 46 46 46 46 236 46 230 46 46 46 46 46 46 
46 46 46 46 46 46 46 46 46 46 46 46 46 46 46 46 233 
46 46 46 46 46 46 46 46 46 46 46 46 228 46 46 236 46 
46 46 46 46 46 46 46 46 46 46 46 46 46 46 46 46 46 
239 46 46 46 46 46 46 46 46 245 46 46 46 46 46 46 46 
46 246 46 46 46 46 46 46 46 46 46 46 46 46 46 46 46 
46 46 46 46 46 46 46 46 46 46 46 46 46 46 46 46 46 
46 46 236 46 242 46 46 46 46 46 46 240 46 46 46 46 46 
46 46 46 46 46 46 46 46 46 46 46 237 46 46 46 46 46 
