<svg xmlns="http://www.w3.org/2000/svg" xmlns:xlink="http://www.w3.org/1999/xlink" xmlns:lucid="lucid" width="645" height="129.46"><g transform="translate(-66 -100.70190346511421)" lucid:page-tab-id="0_0"><path d="M0 0h1870.87v1322.83H0z" fill="#fff"/><path d="M100.75 201.5a.75.75 0 0 1 .75-.75h97a.75.75 0 0 1 .75.75.75.75 0 0 1-.75.75h-97a.75.75 0 0 1-.75-.75z" stroke="#5e5e5e" stroke-width="1.5" fill="none"/><path d="M101.5 193.58a.75.75 0 0 1 .75.75v14.34a.75.75 0 0 1-.75.75.75.75 0 0 1-.75-.75v-14.34a.75.75 0 0 1 .75-.75zM150 193.58a.75.75 0 0 1 .75.75v14.34a.75.75 0 0 1-.75.75.75.75 0 0 1-.75-.75v-14.34a.75.75 0 0 1 .75-.75zM679.25 201.5a.75.75 0 0 1-.75.75h-97a.75.75 0 0 1-.75-.75.75.75 0 0 1 .75-.75h97a.75.75 0 0 1 .75.75z" stroke="#5e5e5e" stroke-width="1.5" fill="none"/><path d="M678.5 209.42a.75.75 0 0 1-.75-.75v-14.34a.75.75 0 0 1 .75-.75.75.75 0 0 1 .75.75v14.34a.75.75 0 0 1-.75.75zM630 209.42a.75.75 0 0 1-.75-.75v-14.34a.75.75 0 0 1 .75-.75.75.75 0 0 1 .75.75v14.34a.75.75 0 0 1-.75.75zM489.25 201.5a.75.75 0 0 1-.75.75h-97a.75.75 0 0 1-.75-.75.75.75 0 0 1 .75-.75h97a.75.75 0 0 1 .75.75z" stroke="#5e5e5e" stroke-width="1.5" fill="none"/><path d="M488.5 209.42a.75.75 0 0 1-.75-.75v-14.34a.75.75 0 0 1 .75-.75.75.75 0 0 1 .75.75v14.34a.75.75 0 0 1-.75.75zM440 209.42a.75.75 0 0 1-.75-.75v-14.34a.75.75 0 0 1 .75-.75.75.75 0 0 1 .75.75v14.34a.75.75 0 0 1-.75.75zM290.75 201.5a.75.75 0 0 1 .75-.75h97a.75.75 0 0 1 .75.75.75.75 0 0 1-.75.75h-97a.75.75 0 0 1-.75-.75z" stroke="#5e5e5e" stroke-width="1.5" fill="none"/><path d="M291.5 193.58a.75.75 0 0 1 .75.75v14.34a.75.75 0 0 1-.75.75.75.75 0 0 1-.75-.75v-14.34a.75.75 0 0 1 .75-.75zM340 193.58a.75.75 0 0 1 .75.75v14.34a.75.75 0 0 1-.75.75.75.75 0 0 1-.75-.75v-14.34a.75.75 0 0 1 .75-.75zM391.5 193.58a.75.75 0 0 1 .75.75v14.34a.75.75 0 0 1-.75.75.75.75 0 0 1-.75-.75v-14.34a.75.75 0 0 1 .75-.75z" stroke="#5e5e5e" stroke-width="1.5" fill="none"/><path d="M519 202.5c0 1.38-1.8 2.5-4 2.5s-4-1.12-4-2.5 1.8-2.5 4-2.5 4 1.12 4 2.5zM539 202.5c0 1.38-1.8 2.5-4 2.5s-4-1.12-4-2.5 1.8-2.5 4-2.5 4 1.12 4 2.5zM559 202.5c0 1.38-1.8 2.5-4 2.5s-4-1.12-4-2.5 1.8-2.5 4-2.5 4 1.12 4 2.5zM229 201.5c0 1.38-1.8 2.5-4 2.5s-4-1.12-4-2.5 1.8-2.5 4-2.5 4 1.12 4 2.5zM249 201.5c0 1.38-1.8 2.5-4 2.5s-4-1.12-4-2.5 1.8-2.5 4-2.5 4 1.12 4 2.5zM269 201.5c0 1.38-1.8 2.5-4 2.5s-4-1.12-4-2.5 1.8-2.5 4-2.5 4 1.12 4 2.5z" stroke="#5e5e5e" stroke-width="3" fill="#5e5e5e"/><path d="M86 178.83a6 6 0 0 1 6-6h19a6 6 0 0 1 6 6v8a6 6 0 0 1-6 6H92a6 6 0 0 1-6-6z" stroke="#000" stroke-opacity="0" stroke-width="3" fill="#fff" fill-opacity="0"/><use xlink:href="#a" transform="matrix(1,0,0,1,91,177.83333333333326) translate(6.796296296296296 10.666666666666668)"/><path d="M134.5 178.83a6 6 0 0 1 6-6h19a6 6 0 0 1 6 6v8a6 6 0 0 1-6 6h-19a6 6 0 0 1-6-6z" stroke="#000" stroke-opacity="0" stroke-width="3" fill="#fff" fill-opacity="0"/><use xlink:href="#b" transform="matrix(1,0,0,1,139.5,177.83333333333326) translate(6.796296296296296 10.666666666666668)"/><path d="M660 178.83a6 6 0 0 1 6-6h19a6 6 0 0 1 6 6v8a6 6 0 0 1-6 6h-19a6 6 0 0 1-6-6z" stroke="#000" stroke-opacity="0" stroke-width="3" fill="#fff" fill-opacity="0"/><use xlink:href="#c" transform="matrix(1,0,0,1,665,177.83333333333326) translate(5.703703703703703 10.666666666666668)"/><path d="M614.5 178.83a6 6 0 0 1 6-6h19a6 6 0 0 1 6 6v8a6 6 0 0 1-6 6h-19a6 6 0 0 1-6-6z" stroke="#000" stroke-opacity="0" stroke-width="3" fill="#fff" fill-opacity="0"/><use xlink:href="#d" transform="matrix(1,0,0,1,619.5,177.83333333333326) translate(-0.20370370370370594 10.666666666666668)"/><path d="M375.83 172.67a6 6 0 0 1 6-6h19a6 6 0 0 1 6 6v8a6 6 0 0 1-6 6h-19a6 6 0 0 1-6-6z" stroke="#000" stroke-opacity="0" stroke-width="3" fill="#fff" fill-opacity="0"/><use xlink:href="#e" transform="matrix(1,0,0,1,380.8333333333333,171.66666666666666) translate(8.648148148148149 10.666666666666668)"/><path d="M424.5 172.67a6 6 0 0 1 6-6h19a6 6 0 0 1 6 6v8a6 6 0 0 1-6 6h-19a6 6 0 0 1-6-6z" stroke="#000" stroke-opacity="0" stroke-width="3" fill="#fff" fill-opacity="0"/><use xlink:href="#f" transform="matrix(1,0,0,1,429.5,171.66666666666666) translate(1.0555555555555536 10.666666666666668)"/><path d="M473 172.67a6 6 0 0 1 6-6h19a6 6 0 0 1 6 6v8a6 6 0 0 1-6 6h-19a6 6 0 0 1-6-6z" stroke="#000" stroke-opacity="0" stroke-width="3" fill="#fff" fill-opacity="0"/><use xlink:href="#g" transform="matrix(1,0,0,1,478.00000000000006,171.66666666666666) translate(1.0555555555555536 10.666666666666668)"/><path d="M324.5 172.67a6 6 0 0 1 6-6h19a6 6 0 0 1 6 6v8a6 6 0 0 1-6 6h-19a6 6 0 0 1-6-6z" stroke="#000" stroke-opacity="0" stroke-width="3" fill="#fff" fill-opacity="0"/><use xlink:href="#h" transform="matrix(1,0,0,1,329.49999999999994,171.66666666666666) translate(2.7407407407407396 10.666666666666668)"/><path d="M276 172.67a6 6 0 0 1 6-6h19a6 6 0 0 1 6 6v8a6 6 0 0 1-6 6h-19a6 6 0 0 1-6-6z" stroke="#000" stroke-opacity="0" stroke-width="3" fill="#fff" fill-opacity="0"/><use xlink:href="#i" transform="matrix(1,0,0,1,280.99999999999994,171.66666666666666) translate(2.7407407407407396 10.666666666666668)"/><path d="M391.33 166.2v-33.5a6 6 0 0 0-6-6H346a6 6 0 0 0-6 6v17.62" stroke="#5e5e5e" fill="none"/><path d="M391.83 166.7h-1v-.5h1z" stroke="#5e5e5e" stroke-width=".05" fill="#5e5e5e"/><path d="M340 165.08l-4.64-14.26h9.28z" stroke="#5e5e5e" fill="#5e5e5e"/><use xlink:href="#j" transform="matrix(1,0,0,1,361.61111111111154,106.70190346511421) translate(0 10.666666666666668)"/><path d="M391.33 166.2v-33.5a6 6 0 0 1 6-6H434a6 6 0 0 1 6 6v17.62" stroke="#5e5e5e" fill="none"/><path d="M391.83 166.7h-1v-.5h1z" stroke="#5e5e5e" stroke-width=".05" fill="#5e5e5e"/><path d="M440 165.08l-4.64-14.26h9.28z" stroke="#5e5e5e" fill="#5e5e5e"/><use xlink:href="#k" transform="matrix(1,0,0,1,411.61111111111165,106.70190346511421) translate(0 10.666666666666668)"/><defs><path fill="#333" d="M101-251c68 0 84 54 84 127C185-50 166 4 99 4S15-52 14-124c-1-75 17-127 87-127zm-1 216c37-5 36-46 36-89s4-89-36-89c-39 0-36 45-36 89 0 43-3 85 36 89" id="l"/><use transform="matrix(0.03703703703703704,0,0,0.03703703703703704,0,0)" xlink:href="#l" id="a"/><path fill="#333" d="M23 0v-37h61v-169l-59 37v-38l62-41h46v211h57V0H23" id="m"/><use transform="matrix(0.03703703703703704,0,0,0.03703703703703704,0,0)" xlink:href="#m" id="b"/><path fill="#333" d="M175 0L67-191c6 58 2 128 3 191H24v-248h59L193-55c-6-58-2-129-3-193h46V0h-61" id="n"/><use transform="matrix(0.03703703703703704,0,0,0.03703703703703704,0,0)" xlink:href="#n" id="c"/><path fill="#333" d="M14-72v-43h91v43H14" id="o"/><g id="d"><use transform="matrix(0.03703703703703704,0,0,0.03703703703703704,0,0)" xlink:href="#n"/><use transform="matrix(0.03703703703703704,0,0,0.03703703703703704,9.592592592592593,0)" xlink:href="#o"/><use transform="matrix(0.03703703703703704,0,0,0.03703703703703704,14.000000000000002,0)" xlink:href="#m"/></g><path fill="#333" d="M25-224v-37h50v37H25zM25 0v-190h50V0H25" id="p"/><use transform="matrix(0.03703703703703704,0,0,0.03703703703703704,0,0)" xlink:href="#p" id="e"/><path fill="#333" d="M125-100v72H85v-72H15v-39h70v-72h40v72h71v39h-71" id="q"/><g id="f"><use transform="matrix(0.03703703703703704,0,0,0.03703703703703704,0,0)" xlink:href="#p"/><use transform="matrix(0.03703703703703704,0,0,0.03703703703703704,3.703703703703704,0)" xlink:href="#q"/><use transform="matrix(0.03703703703703704,0,0,0.03703703703703704,11.481481481481483,0)" xlink:href="#m"/></g><path fill="#333" d="M182-182c0 78-84 86-111 141h115V0H12c-6-101 99-100 120-180 1-22-12-31-33-32-23 0-32 14-35 34l-49-3c5-45 32-70 84-70 51 0 83 22 83 69" id="r"/><g id="g"><use transform="matrix(0.03703703703703704,0,0,0.03703703703703704,0,0)" xlink:href="#p"/><use transform="matrix(0.03703703703703704,0,0,0.03703703703703704,3.703703703703704,0)" xlink:href="#q"/><use transform="matrix(0.03703703703703704,0,0,0.03703703703703704,11.481481481481483,0)" xlink:href="#r"/></g><g id="h"><use transform="matrix(0.03703703703703704,0,0,0.03703703703703704,0,0)" xlink:href="#p"/><use transform="matrix(0.03703703703703704,0,0,0.03703703703703704,3.703703703703704,0)" xlink:href="#o"/><use transform="matrix(0.03703703703703704,0,0,0.03703703703703704,8.111111111111112,0)" xlink:href="#m"/></g><g id="i"><use transform="matrix(0.03703703703703704,0,0,0.03703703703703704,0,0)" xlink:href="#p"/><use transform="matrix(0.03703703703703704,0,0,0.03703703703703704,3.703703703703704,0)" xlink:href="#o"/><use transform="matrix(0.03703703703703704,0,0,0.03703703703703704,8.111111111111112,0)" xlink:href="#r"/></g><path fill="#333" d="M84 4C32 4 15-41 15-95c0-55 18-99 73-99 29 0 47 12 58 34l2-30h48l-1 265h-49V-32C136-9 114 4 84 4zm21-34c32 0 41-29 41-66 0-36-9-64-40-64-33 0-39 30-40 65 0 43 13 65 39 65" id="s"/><use transform="matrix(0.03703703703703704,0,0,0.03703703703703704,0,0)" xlink:href="#s" id="j"/><path fill="#333" d="M135-194c53 0 70 44 70 98 0 56-19 98-73 100-31 1-45-17-59-34 3 33 2 69 2 105H25l-1-265h48c2 10 0 23 3 31 11-24 29-35 60-35zM114-30c33 0 39-31 40-66 0-38-9-64-40-64-56 0-55 130 0 130" id="t"/><use transform="matrix(0.03703703703703704,0,0,0.03703703703703704,0,0)" xlink:href="#t" id="k"/></defs></g></svg>