P2
6 6
255
163 154 241 50 55 188 
68 180 111 209 105 219 
177 192 76 76 74 255 
127 12 252 92 191 188 
224 14 186 78 52 31 
28 215 186 13 9 241 
